<svg id="date_icon_" data-name="date icon&apos;" xmlns="http://www.w3.org/2000/svg" viewBox="0 0 1024 1024.1"><title>calendar</title><path d="M373.77,497.61a67,67,0,0,0,94.73-94.72l-.1-.1a66.79,66.79,0,0,0-94.62,0l-.1.1a67.42,67.42,0,0,0-19.75,47.32,68.18,68.18,0,0,0,19.54,47.4ZM407,436.23h0a19.47,19.47,0,0,1,14-5.79,19,19,0,0,1,14.06,5.79h0a19.76,19.76,0,0,1,0,27.94,19.64,19.64,0,0,1-28,0,19.76,19.76,0,0,1,0-27.94ZM373.77,676.08h0a66.73,66.73,0,0,0,94.62,0l.1-.18a67,67,0,0,0,0-94.62h-.1a66.55,66.55,0,0,0-94.62,0h-.1a66.54,66.54,0,0,0,0,94.62l.1.18ZM407,614.7h0v-.19a20.27,20.27,0,0,1,14-5.68,19.79,19.79,0,0,1,14.06,5.68v.19a18.78,18.78,0,0,1,5.79,13.88,19.4,19.4,0,0,1-5.79,14.09h0A19.85,19.85,0,0,1,421,648.43a20.34,20.34,0,0,1-14-5.77h0a19.4,19.4,0,0,1-5.79-14.09A18.79,18.79,0,0,1,407,614.7ZM737.23,497.61h0A67,67,0,1,0,832,402.89l-.1-.1a66.66,66.66,0,0,0-94.52,0l-.19.1a67,67,0,0,0-.1,94.72Zm33.32-61.39h0a20,20,0,0,1,28.17,0h0a20.34,20.34,0,0,1,0,27.94,20.13,20.13,0,0,1-14.09,5.89,19.72,19.72,0,0,1-14.08-5.89,20.06,20.06,0,0,1,0-27.94ZM555.61,497.61h0a66.27,66.27,0,0,0,47.2,19.65,67,67,0,0,0,47.51-114.37l-.29-.1a66.54,66.54,0,0,0-94.41,0l-.1.1a66.66,66.66,0,0,0,0,94.72Zm33.21-61.39h0a19.19,19.19,0,0,1,14-5.79,19.57,19.57,0,0,1,14.09,5.79h.1a19.94,19.94,0,0,1-.1,27.94,20.09,20.09,0,0,1-14.09,5.89,19.69,19.69,0,0,1-14-5.89,19.81,19.81,0,0,1,0-27.94Zm-215,418.15h0a66.54,66.54,0,0,0,94.62,0h.1a67,67,0,0,0,0-94.6l-.1-.21a67,67,0,0,0-94.62,0l-.1.21a66.52,66.52,0,0,0,0,94.6ZM407,793.09h0V793a19.89,19.89,0,0,1,14-5.77A19.43,19.43,0,0,1,435.05,793v.1A18.76,18.76,0,0,1,440.84,807a19.43,19.43,0,0,1-5.79,14.09v.08A19.7,19.7,0,0,1,421,826.82a20.17,20.17,0,0,1-14-5.68v-.08A19.44,19.44,0,0,1,401.22,807,18.77,18.77,0,0,1,407,793.09ZM984.69-.05H39.4A39.3,39.3,0,0,0,0,39.34V984.64a39.32,39.32,0,0,0,39.4,39.42H984.69A39.31,39.31,0,0,0,1024,984.64V39.34A39.29,39.29,0,0,0,984.69-.05Zm-39.4,945.29H78.71V308.68H945.29V945.24Zm0-683.86H78.71V78.64h77.48v58.77a39.46,39.46,0,0,0,78.92,0V78.64h132v58.77a39.35,39.35,0,1,0,78.71,0V78.64H578v58.77a39.41,39.41,0,0,0,78.81,0V78.64H789v58.77a39.35,39.35,0,1,0,78.71,0V78.64h77.59V261.38Zm-389.68,593h0a66.29,66.29,0,0,0,94.41,0h.29a67,67,0,0,0,0-94.6l-.29-.21a66.74,66.74,0,0,0-94.41,0l-.1.21a66.52,66.52,0,0,0,0,94.6Zm33.21-61.29h0V793a19.59,19.59,0,0,1,14-5.77A20,20,0,0,1,616.89,793l.1.1A19.07,19.07,0,0,1,622.66,807,19.75,19.75,0,0,1,617,821.06l-.1.08a20.27,20.27,0,0,1-14.09,5.68,19.87,19.87,0,0,1-14-5.68v-.08A19.49,19.49,0,0,1,583.05,807a18.82,18.82,0,0,1,5.77-13.88Zm-396.88-117h0a66.73,66.73,0,0,0,94.62,0l.21-.18a67.3,67.3,0,0,0,0-94.62h-.21a66.55,66.55,0,0,0-94.62,0h-.08a66.5,66.5,0,0,0,0,94.62l.08.18Zm33.23-61.38h0v-.19a20.24,20.24,0,0,1,14.19-5.68,19.75,19.75,0,0,1,13.88,5.68l.08.19A19.1,19.1,0,0,1,259,628.58a19.74,19.74,0,0,1-5.68,14.09h-.08a19.82,19.82,0,0,1-13.88,5.77,20.31,20.31,0,0,1-14.19-5.77h0a20.16,20.16,0,0,1-5.66-14.09,19.51,19.51,0,0,1,5.66-13.88ZM191.94,854.37h0a66.54,66.54,0,0,0,94.62,0h.21a67.27,67.27,0,0,0,0-94.6l-.21-.21a67,67,0,0,0-94.62,0l-.08.21a66.47,66.47,0,0,0,0,94.6Zm33.23-61.29h0V793a19.87,19.87,0,0,1,14.19-5.77A19.38,19.38,0,0,1,253.24,793l.08.1A19.08,19.08,0,0,1,259,807a19.77,19.77,0,0,1-5.68,14.09l-.08.08a19.66,19.66,0,0,1-13.88,5.68,20.15,20.15,0,0,1-14.19-5.68v-.08A20.2,20.2,0,0,1,219.51,807a19.49,19.49,0,0,1,5.66-13.88Zm330.44-117h0a66.48,66.48,0,0,0,94.41,0l.29-.18a67,67,0,0,0,0-94.62H650a66.3,66.3,0,0,0-94.41,0h-.1a66.54,66.54,0,0,0,0,94.62l.1.18Zm33.21-61.38h0v-.19a20,20,0,0,1,14-5.68,20.37,20.37,0,0,1,14.09,5.68l.1.19a19.09,19.09,0,0,1,5.66,13.88A19.72,19.72,0,0,1,617,642.67h-.1a20.44,20.44,0,0,1-14.09,5.77,20,20,0,0,1-14-5.77h0a19.46,19.46,0,0,1-5.77-14.09,18.84,18.84,0,0,1,5.77-13.88Zm148.6,61.38h0a66.61,66.61,0,0,0,94.52,0l.1-.18a66.79,66.79,0,0,0,0-94.62h-.1a66.42,66.42,0,0,0-94.52,0h-.19a66.74,66.74,0,0,0,0,94.62l.19.18Zm33.13-61.38h0v-.19a20.29,20.29,0,0,1,28.17,0v.19a19.09,19.09,0,0,1,5.56,13.88,19.73,19.73,0,0,1-5.56,14.09h0a20.08,20.08,0,0,1-28.17,0h0a19.72,19.72,0,0,1-5.66-14.09,19.08,19.08,0,0,1,5.66-13.88Z" transform="translate(0 0.05)"/></svg>