<svg id="Warstwa_1" data-name="Warstwa 1" xmlns="http://www.w3.org/2000/svg" viewBox="0 0 28 28.9"><title>icon01--tooltip</title><path id="Composite_Path_copy_4" data-name="Composite Path copy 4" d="M23.7,0H4.1C2.3.1.3,2.3,0,4.3V19.8c0,1.8,2.4,4.7,4.4,4.7h5.8c.4.5,2.3,4.4,3.8,4.4s2.9-3.3,3.9-4.4h5.6c1.8,0,4.5-2.5,4.5-4.6V4.7C28,2.9,26,.1,23.7,0ZM15.3,18.7a1.67,1.67,0,0,1-1.5,1.8h-.2A1.65,1.65,0,0,1,11.9,19v-.3A1.48,1.48,0,0,1,13.1,17h.4a1.59,1.59,0,0,1,1.8,1.4Zm.1-6a18.43,18.43,0,0,0-.5,2.5,1.11,1.11,0,0,1-1.4.6A1.27,1.27,0,0,1,12,14.7v-.5c0-2.6,2.6-4.6,2.6-5.9s-1.5-1.4-1.8-1.4-1,.3-1.4.3a1,1,0,0,1-1.1-1V6c0-1.6,2.3-1.6,3.1-1.6,2.1,0,4.4.7,4.4,3.4C18,9.8,16.6,10.6,15.4,12.7Z"/></svg>